<svg xmlns="http://www.w3.org/2000/svg" viewBox="0 0 270.85 268.95"><defs><style>.cls-1{fill:#fff;}</style></defs><g id="圖層_2" data-name="圖層 2"><g id="圖層_1-2" data-name="圖層 1"><path class="cls-1" d="M67.54,109.19a27.09,27.09,0,0,1,2.95,2.1c12.45,11.52,25,22.93,37.27,34.68a18.52,18.52,0,0,1-7.17,31.33c-7.33,2.28-13.71.3-19.28-4.89q-22.73-21.18-45.55-42.26Q21.18,116.71,6.41,103.47C-2.23,95.72-2.17,83,6.8,74.84,20.38,62.52,34.05,50.29,47.68,38,59.82,27.07,71.9,16.05,84.1,5.18c10-8.91,24.81-5.93,30.07,5.91,3.39,7.65,1.5,16-5.21,22.05Q90.12,50.26,71.18,67.26c-1,.91-2,1.86-3.65,3.46h4.62c34.2,0,68.39-.22,102.58.11,46.47.44,87.86,36.75,94.89,82.74,8.34,54.53-26.45,103.67-80.74,113.78a97.52,97.52,0,0,1-17.49,1.51q-75.63.18-151.25.05C9.7,268.91,2.35,263.1.39,253.59a18.59,18.59,0,0,1,16.24-21.92c2-.18,4-.17,6-.17,49.3,0,98.59.1,147.89-.05,24.15-.07,42.92-10.44,55-31.46,23.22-40.42-6-91.34-52.64-91.76-34.07-.3-68.14-.07-102.21-.07-.82,0-1.64.09-2.46.14Z"/></g></g></svg>