<svg xmlns="http://www.w3.org/2000/svg" viewBox="0 0 462.17 656.94"><defs><style>.cls-1{fill:#fce4df;}</style></defs><g id="圖層_2" data-name="圖層 2"><g id="圖層_1-2" data-name="圖層 1"><path class="cls-1" d="M462.17,221.74A214,214,0,0,0,420.64,95.13C377.3,35.56,306.44,0,231.09,0,139.35,0,56.23,52.23,19.33,133.07A212,212,0,0,0,0,220.5V435.2C0,557.47,103.67,656.94,231.09,656.94a239.85,239.85,0,0,0,62.48-8.3h.72l.26-.26c98.73-27.1,167.62-114.67,167.62-213.17V226.93l-.05-2.36C462.15,223.63,462.17,222.69,462.17,221.74ZM443.73,435.2A196.14,196.14,0,0,1,437.28,485a201.86,201.86,0,0,1-43.56,81.29,210.75,210.75,0,0,1-31.62,29.25A214.07,214.07,0,0,1,273.27,635c-6.54,1.27-13.25,2.26-19.92,2.93a222.71,222.71,0,0,1-53.83-1.14c-6.35-.91-12.9-2.16-19.47-3.72a221.33,221.33,0,0,1-24.86-7.49,216.2,216.2,0,0,1-39.72-19.44,212.7,212.7,0,0,1-44-36.45,203.2,203.2,0,0,1-35.18-52.84A194.73,194.73,0,0,1,18.45,435.2V235.92h.37l-.3-11.32c0-.94-.07-1.9-.07-2.86a196.92,196.92,0,0,1,29.6-103.58A202.3,202.3,0,0,1,59.88,101c2.91-3.78,6-7.53,9.51-11.45A211.46,211.46,0,0,1,92.72,67.15a217.75,217.75,0,0,1,18.35-13.57A215.41,215.41,0,0,1,158.6,30.11c6.42-2.24,13-4.19,19.39-5.78a220.31,220.31,0,0,1,41.76-6.14c6.65-.35,13.41-.35,20.08-.08A220.44,220.44,0,0,1,286.63,25c6.12,1.59,12,3.35,17.36,5.25a214.19,214.19,0,0,1,67.52,38.61c5.24,4.44,10.29,9.14,15,14a207.69,207.69,0,0,1,21.11,25.4q3.11,4.44,6,9a196.81,196.81,0,0,1,30.14,104.46c0,1.07-.07,5.28-.11,6.39Z"/><path class="cls-1" d="M181.42,359.24c-14.34.22-28.68,0-43-.06-8.5,0-17,0-25.91,0v79.44a12.75,12.75,0,0,0,2.49.67c22.68.06,45.37,0,68.05.18,4.59,0,4.5-2.71,4.5-5.89,0-22.68-.13-45.36.07-68C187.64,360.83,186.28,359.17,181.42,359.24Zm-22.69,58.42c-.09,1.22-2.17,3.17-3.45,3.29-4.61.4-9.28.15-14.44.15-.64-12.29-2.33-23.59,8.94-30.87C160.23,396.93,159.47,407.37,158.73,417.66Z"/><path class="cls-1" d="M319,435.22c-20.74.3-41.49.23-62.23,0-4.64,0-6.52,1.23-6.34,6.14.33,9,.08,18,.1,26.93,0,11.92-.42,10.32,9.8,10,5.2-.14,6.76,1.8,6.69,6.61-.16,10,.09,20.09-.07,30.14-.07,4,1,5.74,5.41,5.68q23.73-.31,47.47,0c4.65.07,5.85-1.72,5.78-6-.19-12.18-.07-24.37-.07-36.55h.06c0-12-.21-24,.1-35.91C325.83,437.22,324.57,435.14,319,435.22Zm-13.77,51h-17c-3.51-13.62-1.84-20.12,7.83-30.52C307.89,463,306.2,474.4,305.23,486.23Z"/><path class="cls-1" d="M180.81,450.57c-13.91.18-27.84,0-41.76-.07-8.71,0-17.43,0-26.11,0a22.36,22.36,0,0,0-.72,3.44c0,22.26,0,44.53-.12,66.79,0,4.45,2.4,4.71,5.72,4.7,21.2,0,42.4-.14,63.59.07,4.86,0,6.24-1.63,6.19-6.32-.2-20.76-.26-41.53,0-62.29C187.71,451.46,185.51,450.51,180.81,450.57ZM158.73,502c-.07,1.08-2,2.82-3.15,2.9-4.81.33-9.66.14-14.62.14-1-12.1-2.46-23.44,8.7-30.86C160.4,480.91,159.43,491.56,158.73,502Z"/><path class="cls-1" d="M320,396.64c-6.61-11.36-12.76-23-19.76-34.14-1.54-2.43-2.27-3.71-3.91-6.08-.73-1.05-2.1-3.28-2.66-4.35L285.2,333.5c-1.38,7.77-4.73,13.64-8.19,21.66-6.51,15.1-16.69,28.36-24.92,42.62a57.93,57.93,0,0,0-2.34,5.31h73.6C321.89,400.3,321,398.43,320,396.64Z"/><path class="cls-1" d="M251,414.09c-1.41,9.56-1.34,9.65,7.56,9.65q29.57,0,59.12,0c8.72,0,9-.39,7.24-9.66Z"/><path class="cls-1" d="M180.49,337.75l-39.2-.05H112.85C111.54,348,111.54,348,120.39,348q29.88,0,59.76,0c3.5,0,7.36,1,7.49-5S184.15,337.75,180.49,337.75Z"/><path class="cls-1" d="M388.8,126C348.46,64.47,277.25,32.68,199.67,44.16,135.38,53.69,79.22,99.81,54.91,158.88a191.15,191.15,0,0,0-16.06,75.75V422.86c0,106,86.24,192.23,192.24,192.23a191.48,191.48,0,0,0,52.26-7.28h0c80.66-22.84,140-97.08,140-184.95V240.31l-.05-2.18c0-.8.05-1.6.05-2.4A191.13,191.13,0,0,0,388.8,126ZM230.16,214.91v-.21c-4.61,0-9.32-.62-13.81.11-13.88,2.28-22.15-3.84-28-16-5.25-10.86-11.83-21.08-18-31.48-3.72-6.3-3.9-12.42-.2-18.77q11.31-19.41,22.46-38.91c3.64-6.36,9-9.27,16.35-9.17q22,.3,44.07,0c7.76-.1,13.1,3.17,16.85,9.85q10.59,18.83,21.6,37.41c3.92,6.6,4.15,12.84.2,19.51-7.34,12.38-14.61,24.81-21.56,37.41-4.09,7.43-10,10.65-18.34,10.29C244.57,214.67,237.36,214.91,230.16,214.91ZM62,171.88l.13-.33c2.25-6.06,5.73-8.63,12-8.53,11.82.19,23.65,0,35.47,0,11.53,0,23.06-.11,34.59.06,10.39.15,20,8.27,20.37,18.39.12,3.76-2.66,9.34-5.83,11.23-31.2,18.58-62.69,36.69-94.27,54.62-7.31,4.15-12.26.91-12.52-7.71C51.24,216.49,54,193.84,62,171.88Zm83.94-19.65c-10.37.31-20.75.07-31.13.07-9.8,0-19.6.22-29.39-.05-7.37-.2-11.09-3.51-10-8.47a181.91,181.91,0,0,1,10.07-15.21c2.65-3.41,5.36-6.79,8.09-10.15a182.83,182.83,0,0,1,19.85-19.9c2.53-.26,5.25.56,8.1,2.28,10.85,6.56,21.91,12.78,32.93,19,5.9,3.36,12,6.56,10.31,15C162.84,144.56,155.07,152,145.91,152.23Zm183.6-58c-11.16,7.06-22.82,13.35-34.33,19.86a10.67,10.67,0,0,1-3.42.83c-9.57-.25-18.25-15.32-14.87-24.81a49.43,49.43,0,0,1,3.94-7.65c5.54-9.77,8.53-15,12.25-16.67A180.29,180.29,0,0,1,333,86.36C334,89.17,332.87,92.11,329.51,94.23Zm-51.2-33.09c.45,1.48.16,3.29-1,5.4-2.37,4.29-4.75,8.57-7.25,12.78-5.62,9.46-15.72,13.32-26,9.58-9.55-3.49-7.34-11.79-7.32-19.11.08-7.91.18-12.4,1.74-14.76A180,180,0,0,1,278.31,61.14Zm-53.24-1c1.18,2.64.25,6.21.25,9.37,0,1.15.11,2.3.13,3.45.14,6.45.4,13.07-7.3,15.79C209,92,198.52,89.36,194,82.49c-3.49-5.26-7-10.68-9.2-16.52-.45-1.2.19-3.54,1.15-5.42a179.91,179.91,0,0,1,35.51-5.44A17.84,17.84,0,0,1,225.07,60.16Zm-64.76,50.52c-8.46-4.92-17.05-9.62-25.39-14.73-4.95-3-6.9-6.27-5.9-9.46a180.72,180.72,0,0,1,40.44-20.82,9.52,9.52,0,0,1,3.9,3.92c4.7,8.12,9.36,16.27,14.73,25.63-4.19,6.42-7.14,13.14-12,17.83S165.32,113.59,160.31,110.68Zm117.57,102c6.44-13.08,11.66-14.88,24.4-7.56,30.73,17.66,61.35,35.51,92.19,53,11,6.21,15.94,15.14,15.85,27.54-.16,24.21,0,48.42,0,72.63h-.12c0,24.78.17,49.56-.19,74.33-.05,3.41,1.09,14.43-.38,17.82-2.6-2.36-9.84-11.9-11.51-14.78Q339,334,280.27,232.15C276.64,225.88,274.33,219.88,277.88,212.66Zm19.57-32.84c2.71-9.63,9.6-16.36,17.7-16.54,12.36-.27,24.74-.07,37.1-.07v-.14c10.94,0,21.89.36,32.8-.11,8.4-.36,13,2.45,15.77,10.9a189.88,189.88,0,0,1,9.38,65.41c-.27,9.35-5.45,12.32-13.75,7.58-30.73-17.52-61.33-35.28-92-52.94C299,190.75,295.55,186.58,297.45,179.82Zm79.44-27.59c-10.37.32-20.76.08-31.14.08v-.12c-9.8,0-19.61.14-29.41,0-9.43-.17-19.79-10.3-19.14-19.63a14.33,14.33,0,0,1,5.76-9.72c12.65-8,25.6-15.62,38.94-22.4,2.07-1,5.73-1.11,8.6-.38q6.67,5.89,12.76,12.4,9.33,11,18,22.53,2.64,3.94,5.08,8C387.92,148.19,384.24,152,376.89,152.23ZM132.77,574.56c2-10.66,10.88-17.19,16.6-25.66,12.33,11.43,20.5,23.75,17.39,40.91a18.71,18.71,0,0,0-.21,2A179.93,179.93,0,0,1,132.77,574.56Zm54.92,23.88c0-13.44.05-26.88.08-40.32,0-7,0-14,0-21H112.6v22.26a183.28,183.28,0,0,1-17.24-17.12c0-46.7,0-93.4.28-140.09.08-12.29-1.78-23.24-9.35-33-2.67-3.42-6.31-7.06-6.47-10.77l-8,16c-3.39,5.55-6,11.74-6,18.64.37,31.47.17,62.94.14,94.41,0,2.46-.26,4.93-.43,7.91h-.14a179.68,179.68,0,0,1-15.21-72.48v-101c0-10.95.43-22.8,0-33.73-.55-13.93,6.84-24.32,19-31.14,30.45-17,60.54-34.68,90.75-52.12,5.88-3.39,11.72-7.1,18.12-1.3,7.54,6.85,10,17.06,5.48,25.07-8.71,15.46-17.67,30.79-26.58,46.14.43.83.94,1.66,1.47,2.5-.58-.93-1.16-1.9-1.47-2.5L148.6,256.2c-1.38,7.77-4.73,13.64-8.19,21.66-6.51,15.11-16.7,28.36-24.92,42.62-.81,1.4-1.32,3-2.34,5.31h73.6c-1.47-2.79-2.36-4.66-3.4-6.44-6.61-11.37-12.76-23.05-19.76-34.15q15-26.1,30.28-52.06c4.25-7.2,14.59-9.64,24.08-6.55,7.81,2.55,7.53,9.16,7.52,15.63q0,51.38,0,102.74l.13.25L226,371a39.66,39.66,0,0,0-2.38-3.3L216.55,354c0,.42.07.85.11,1.3.53,7.76-3.62,13.35-6.73,19.63-2.39,4.84-5.44,10.15-5.46,15.26-.34,70.51-.25,141-.22,211.55C198.64,600.9,193.12,599.78,187.69,598.44Zm108.84-44.15c11.22,7.14,9.92,18.38,8.69,30.7-5.25,0-9.94.25-14.58-.16-1.27-.11-3.3-2.08-3.39-3.32C286.48,571.23,285.84,560.84,296.53,554.29Zm64.72-25.81c0-16.48.17-33,0-49.45-.13-11.86,2.22-10.89-11.57-11.17-5-.1-7.21,1.06-7.17,6.69.2,28.26,0,56.52,0,84.77,0,2,0,3.92,0,5.87a180.24,180.24,0,0,1-17,11.9c0-.81,0-1.63,0-2.45h.06c0-12.42-.15-24.84.08-37.26.08-4.44-1.36-6-5.89-5.9q-23.46.35-46.92,0c-4.54-.06-5.9,1.47-5.88,5.89q.21,31.39,0,62.79-8.34,1.68-16.94,2.59c-.14-31.56-.08-63.13-.08-94.69,0-12.2,0-12.19-12.4-12.74a24.4,24.4,0,0,1-2.68-.36l1.8-146-.09-.07q-.06-53.87,0-107.72c0-12.28,3.3-15.44,16.21-15.41,7.65-.8,13.23,3.11,17.41,10.36Q334.95,348.46,400,460.55c.37.64,4.1,6.32,5.75,9a180.46,180.46,0,0,1-36.39,69.73C361.28,538.38,361.24,537.58,361.25,528.48Z"/></g></g></svg>